<svg xmlns="http://www.w3.org/2000/svg" xmlns:xlink="http://www.w3.org/1999/xlink" id="Layer_1" width="283.46" height="283.46" x="0" y="0" enable-background="new 0 0 283.46 283.46" version="1.1" viewBox="0 0 283.46 283.46" xml:space="preserve"><g id="Grid"><line x1="70.866" x2="70.866" y1="7.086" y2="248.031" fill="none" stroke="#939598" stroke-miterlimit="10" stroke-width=".5"/><line x1="106.299" x2="106.299" y1="7.086" y2="248.031" fill="none" stroke="#939598" stroke-miterlimit="10" stroke-width=".5"/><line x1="141.732" x2="141.732" y1="7.086" y2="248.031" fill="none" stroke="#939598" stroke-miterlimit="10" stroke-width=".5"/><line x1="212.598" x2="212.598" y1="7.086" y2="248.031" fill="none" stroke="#939598" stroke-miterlimit="10" stroke-width=".5"/><line x1="248.031" x2="248.031" y1="7.086" y2="248.031" fill="none" stroke="#939598" stroke-miterlimit="10" stroke-width=".5"/><line x1="35.434" x2="269.291" y1="212.598" y2="212.598" fill="none" stroke="#939598" stroke-miterlimit="10" stroke-width=".5"/><line x1="35.433" x2="269.291" y1="177.165" y2="177.165" fill="none" stroke="#939598" stroke-miterlimit="10" stroke-width=".5"/><line x1="35.434" x2="269.291" y1="141.731" y2="141.731" fill="none" stroke="#939598" stroke-miterlimit="10" stroke-width=".5"/><line x1="35.434" x2="269.291" y1="106.299" y2="106.299" fill="none" stroke="#939598" stroke-miterlimit="10" stroke-width=".5"/><line x1="35.433" x2="269.291" y1="70.866" y2="70.866" fill="none" stroke="#939598" stroke-miterlimit="10" stroke-width=".5"/><line x1="35.434" x2="269.291" y1="35.433" y2="35.433" fill="none" stroke="#939598" stroke-miterlimit="10" stroke-width=".5"/><line x1="177.165" x2="177.165" y1="7.086" y2="248.031" fill="none" stroke="#939598" stroke-miterlimit="10" stroke-width=".5"/></g><g id="Axes"><g><g><line x1="35.433" x2="35.433" y1="13.056" y2="248.031" fill="none" stroke="#000" stroke-miterlimit="10"/><g><polygon points="31.73 15.864 35.433 14.291 39.136 15.864 35.433 7.086"/></g></g></g><g><g><line x1="35.433" x2="270.408" y1="248.031" y2="248.031" fill="none" stroke="#000" stroke-miterlimit="10"/><g><polygon points="267.6 251.734 269.174 248.031 267.6 244.328 276.379 248.031"/></g></g></g></g><g id="Path"><line x1="35.434" x2="106.299" y1="212.598" y2="212.598" fill="none" stroke="#009444" stroke-miterlimit="10" stroke-width="2"/><line x1="106.299" x2="106.299" y1="212.598" y2="141.731" fill="none" stroke="#009444" stroke-miterlimit="10" stroke-width="2"/><line x1="106.299" x2="177.166" y1="141.731" y2="106.298" fill="none" stroke="#009444" stroke-miterlimit="10" stroke-width="2"/><line x1="177.166" x2="177.166" y1="106.298" y2="212.598" fill="none" stroke="#009444" stroke-miterlimit="10" stroke-width="2"/><line x1="177.166" x2="248.031" y1="212.598" y2="212.598" fill="none" stroke="#009444" stroke-miterlimit="10" stroke-width="2"/></g><line x1="106.299" x2="106.299" y1="255.117" y2="248.031" fill="none" stroke="#000" stroke-miterlimit="10"/><g><line x1="28.347" x2="35.434" y1="212.598" y2="212.598" fill="none" stroke="#000" stroke-miterlimit="10"/><line x1="28.347" x2="35.433" y1="141.731" y2="141.731" fill="none" stroke="#000" stroke-miterlimit="10"/><line x1="28.347" x2="35.433" y1="106.299" y2="106.299" fill="none" stroke="#000" stroke-miterlimit="10"/><line x1="177.166" x2="177.166" y1="255.117" y2="248.031" fill="none" stroke="#000" stroke-miterlimit="10"/><line x1="35.434" x2="35.433" y1="255.117" y2="248.031" fill="none" stroke="#000" stroke-miterlimit="10"/><line x1="248.031" x2="248.031" y1="255.117" y2="248.031" fill="none" stroke="#000" stroke-miterlimit="10"/><text font-family="'Helvetica'" font-size="12" transform="matrix(1 0 0 1 15.3125 110.3857)">V</text><text font-family="'Helvetica'" font-size="12" transform="matrix(0.583 0 0 0.583 23.3164 114.3818)">b</text><text font-family="'Helvetica'" font-size="12" transform="matrix(1 0 0 1 15.3125 145.0527)">V</text><text font-family="'Helvetica'" font-size="12" transform="matrix(0.583 0 0 0.583 23.3164 149.0488)">a</text><text font-family="'Helvetica'" font-size="12" transform="matrix(1 0 0 1 17.9229 216.6699)">0</text><text font-family="'Helvetica'" font-size="12" transform="matrix(1 0 0 1 32.0962 266.0039)">0</text><text font-family="'Helvetica'" font-size="12" transform="matrix(1 0 0 1 175.3145 266.0039)">t</text><text font-family="'Helvetica'" font-size="12" transform="matrix(0.583 0 0 0.583 178.6484 270)">b</text><text font-family="'Helvetica'" font-size="12" transform="matrix(1 0 0 1 104.9814 266.0039)">t</text><text font-family="'Helvetica'" font-size="12" transform="matrix(0.583 0 0 0.583 108.3154 270)">a</text><text font-family="'Helvetica'" font-size="12" transform="matrix(1 0 0 1 246.1934 266.0039)">t</text><text font-family="'Helvetica'" font-size="12" transform="matrix(0.583 0 0 0.583 249.5273 270)">end</text></g><g id="Marker"><g><line x1="102.755" x2="109.842" y1="145.275" y2="138.188" fill="none" stroke="#000" stroke-miterlimit="10" stroke-width="2"/><line x1="102.755" x2="109.842" y1="138.188" y2="145.275" fill="none" stroke="#000" stroke-miterlimit="10" stroke-width="2"/></g><g><line x1="173.623" x2="180.709" y1="109.842" y2="102.755" fill="none" stroke="#000" stroke-miterlimit="10" stroke-width="2"/><line x1="173.623" x2="180.709" y1="102.755" y2="109.842" fill="none" stroke="#000" stroke-miterlimit="10" stroke-width="2"/></g><g><line x1="244.488" x2="251.574" y1="216.142" y2="209.055" fill="none" stroke="#000" stroke-miterlimit="10" stroke-width="2"/><line x1="244.488" x2="251.574" y1="209.055" y2="216.142" fill="none" stroke="#000" stroke-miterlimit="10" stroke-width="2"/></g><g><line x1="31.89" x2="38.977" y1="216.142" y2="209.055" fill="none" stroke="#000" stroke-miterlimit="10" stroke-width="2"/><line x1="31.89" x2="38.977" y1="209.055" y2="216.142" fill="none" stroke="#000" stroke-miterlimit="10" stroke-width="2"/></g></g><g id="Labels"><g><g><line x1="113.386" x2="139.868" y1="85.039" y2="118.142" fill="none" stroke="#000" stroke-miterlimit="10" stroke-width=".5"/><g><polygon points="137.545 118.202 139.482 117.659 140.437 115.888 141.732 120.472"/></g></g></g><text font-family="'Helvetica'" font-size="14" transform="matrix(0.583 0 0 0.583 78.6733 82.6147)">Linear interpolation</text><g><g><line x1="63.78" x2="63.78" y1="191.339" y2="202.527" fill="none" stroke="#000" stroke-miterlimit="10" stroke-width=".5"/><g><polygon points="61.928 201.123 63.78 201.909 65.631 201.123 63.78 205.512"/></g></g></g><text font-family="'Helvetica'" font-size="14" transform="matrix(0.583 0 0 0.583 39.105 188.9141)">Hold interpolation</text><g><g><line x1="205.512" x2="205.512" y1="191.34" y2="202.527" fill="none" stroke="#000" stroke-miterlimit="10" stroke-width=".5"/><g><polygon points="203.66 201.123 205.512 201.91 207.363 201.123 205.512 205.512"/></g></g></g><text font-family="'Helvetica'" font-size="14" transform="matrix(0.583 0 0 0.583 178.4531 188.9141)">“Inverse hold” interpolation</text></g><g id="Legend"><rect width="76.71" height="29.667" x="173.623" y="24" fill="#FFF" stroke="#000" stroke-miterlimit="10" stroke-width=".5"/><text font-family="'Helvetica'" font-size="14" transform="matrix(0.583 0 0 0.583 187.7441 35.3779)">Supporting point</text><text font-family="'Helvetica'" font-size="14" transform="matrix(0.583 0 0 0.583 187.7441 48.4482)">Pulse voltage</text><g><line x1="176.946" x2="184.032" y1="36.199" y2="29.112" fill="none" stroke="#000" stroke-miterlimit="10" stroke-width="2"/><line x1="176.946" x2="184.032" y1="29.112" y2="36.199" fill="none" stroke="#000" stroke-miterlimit="10" stroke-width="2"/></g><line x1="176.945" x2="184.032" y1="45.5" y2="45.5" fill="none" stroke="#39B54A" stroke-miterlimit="10" stroke-width="2"/></g><g><g><line x1="109.284" x2="174.18" y1="233.858" y2="233.858" fill="none" stroke="#000" stroke-miterlimit="10" stroke-width=".5"/><g><polygon points="110.688 235.71 109.902 233.858 110.688 232.007 106.299 233.858"/></g><g><polygon points="172.775 235.71 173.563 233.858 172.775 232.007 177.165 233.858"/></g></g></g><text font-family="'Helvetica-Oblique'" font-size="14" transform="matrix(0.583 0 0 0.583 128.1729 231.7275)">length</text><g><g><line x1="101.992" x2="83.216" y1="217.797" y2="230.313" fill="none" stroke="#000" stroke-miterlimit="10" stroke-width=".5"/><g><polygon points="99.796 217.035 101.478 218.14 101.851 220.117 104.476 216.142"/></g></g></g><text font-family="'Helvetica-Oblique'" font-size="14" transform="matrix(0.583 0 0 0.583 72.1611 237.9961)">start</text></svg>