<svg xmlns="http://www.w3.org/2000/svg" xmlns:svg="http://www.w3.org/2000/svg" id="Layer_1" width="500" height="500" x="0" y="0" enable-background="new 0 0 283.46 283.46" version="1.1" viewBox="0 0 500 500" xml:space="preserve"><metadata id="metadata209"/><g id="Grid" transform="matrix(1.8212787,0,0,1.8212787,-12.619139,-5.2725481)"><line id="line4" x1="70.866" x2="70.866" y1="7.086" y2="248.031" stroke-miterlimit="10" style="fill:none;stroke:#939598;stroke-width:.5;stroke-miterlimit:10"/><line id="line6" x1="106.299" x2="106.299" y1="7.086" y2="248.031" stroke-miterlimit="10" style="fill:none;stroke:#939598;stroke-width:.5;stroke-miterlimit:10"/><line id="line8" x1="141.732" x2="141.732" y1="7.086" y2="248.031" stroke-miterlimit="10" style="fill:none;stroke:#939598;stroke-width:.5;stroke-miterlimit:10"/><line id="line10" x1="212.598" x2="212.598" y1="7.086" y2="248.031" stroke-miterlimit="10" style="fill:none;stroke:#939598;stroke-width:.5;stroke-miterlimit:10"/><line id="line12" x1="248.031" x2="248.031" y1="7.086" y2="248.031" stroke-miterlimit="10" style="fill:none;stroke:#939598;stroke-width:.5;stroke-miterlimit:10"/><line id="line14" x1="35.434" x2="269.291" y1="212.598" y2="212.598" stroke-miterlimit="10" style="fill:none;stroke:#939598;stroke-width:.5;stroke-miterlimit:10"/><line id="line16" x1="35.433" x2="269.291" y1="177.165" y2="177.165" stroke-miterlimit="10" style="fill:none;stroke:#939598;stroke-width:.5;stroke-miterlimit:10"/><line id="line18" x1="35.434" x2="269.291" y1="141.731" y2="141.731" stroke-miterlimit="10" style="fill:none;stroke:#939598;stroke-width:.5;stroke-miterlimit:10"/><line id="line20" x1="35.434" x2="269.291" y1="106.299" y2="106.299" stroke-miterlimit="10" style="fill:none;stroke:#939598;stroke-width:.5;stroke-miterlimit:10"/><line id="line22" x1="35.433" x2="269.291" y1="70.866" y2="70.866" stroke-miterlimit="10" style="fill:none;stroke:#939598;stroke-width:.5;stroke-miterlimit:10"/><line id="line24" x1="35.434" x2="269.291" y1="35.433" y2="35.433" stroke-miterlimit="10" style="fill:none;stroke:#939598;stroke-width:.5;stroke-miterlimit:10"/><line id="line26" x1="177.165" x2="177.165" y1="7.086" y2="248.031" stroke-miterlimit="10" style="fill:none;stroke:#939598;stroke-width:.5;stroke-miterlimit:10"/></g><g id="Axes" transform="matrix(1.8212787,0,0,1.8212787,-12.619139,-5.2725481)"><g id="g29"><g id="g31"><line id="line33" x1="35.433" x2="35.433" y1="13.056" y2="248.031" stroke-miterlimit="10" style="fill:none;stroke:#000;stroke-miterlimit:10"/><g id="g35"><polygon id="polygon37" points="35.433 7.086 31.73 15.864 35.433 14.291 39.136 15.864"/></g></g></g><g id="g39"><g id="g41"><line id="line43" x1="35.433" x2="270.408" y1="248.031" y2="248.031" stroke-miterlimit="10" style="fill:none;stroke:#000;stroke-miterlimit:10"/><g id="g45"><polygon id="polygon47" points="276.379 248.031 267.6 251.734 269.174 248.031 267.6 244.328"/></g></g></g></g><g id="Path" transform="matrix(1.8212787,0,0,1.8212787,-12.619139,-5.2725481)"><line id="line50" x1="35.434" x2="106.299" y1="212.598" y2="212.598" stroke-miterlimit="10" style="fill:none;stroke:#009444;stroke-width:2;stroke-miterlimit:10"/><line id="line52" x1="106.299" x2="106.299" y1="212.598" y2="141.731" stroke-miterlimit="10" style="fill:none;stroke:#009444;stroke-width:2;stroke-miterlimit:10"/><line id="line54" x1="106.299" x2="177.166" y1="141.731" y2="106.298" stroke-miterlimit="10" style="fill:none;stroke:#009444;stroke-width:2;stroke-miterlimit:10"/><line id="line56" x1="177.166" x2="177.166" y1="106.298" y2="212.598" stroke-miterlimit="10" style="fill:none;stroke:#009444;stroke-width:2;stroke-miterlimit:10"/><line id="line58" x1="177.166" x2="248.031" y1="212.598" y2="212.598" stroke-miterlimit="10" style="fill:none;stroke:#009444;stroke-width:2;stroke-miterlimit:10"/></g><line id="line60" x1="180.981" x2="180.981" y1="459.367" y2="446.461" stroke-miterlimit="10" style="fill:none;stroke:#000;stroke-width:1.82127869;stroke-miterlimit:10"/><g id="g62" transform="matrix(1.8212787,0,0,1.8212787,-12.619139,-5.2725481)"><line id="line64" x1="28.347" x2="35.434" y1="212.598" y2="212.598" stroke-miterlimit="10" style="fill:none;stroke:#000;stroke-miterlimit:10"/><line id="line66" x1="28.347" x2="35.433" y1="141.731" y2="141.731" stroke-miterlimit="10" style="fill:none;stroke:#000;stroke-miterlimit:10"/><line id="line68" x1="28.347" x2="35.433" y1="106.299" y2="106.299" stroke-miterlimit="10" style="fill:none;stroke:#000;stroke-miterlimit:10"/><line id="line70" x1="177.166" x2="177.166" y1="255.117" y2="248.031" stroke-miterlimit="10" style="fill:none;stroke:#000;stroke-miterlimit:10"/><line id="line72" x1="35.434" x2="35.433" y1="255.117" y2="248.031" stroke-miterlimit="10" style="fill:none;stroke:#000;stroke-miterlimit:10"/><line id="line74" x1="248.031" x2="248.031" y1="255.117" y2="248.031" stroke-miterlimit="10" style="fill:none;stroke:#000;stroke-miterlimit:10"/><text id="text76" font-size="12" transform="translate(15.3125,110.3857)" style="font-size:12px;font-family:Helvetica">V</text><text id="text78" font-size="12" transform="matrix(0.583,0,0,0.583,23.3164,114.3818)" style="font-size:12px;font-family:Helvetica">b</text><text id="text80" font-size="12" transform="translate(15.3125,145.0527)" style="font-size:12px;font-family:Helvetica">V</text><text id="text82" font-size="12" transform="matrix(0.583,0,0,0.583,23.3164,149.0488)" style="font-size:12px;font-family:Helvetica">a</text><text id="text84" font-size="12" transform="translate(17.9229,216.6699)" style="font-size:12px;font-family:Helvetica">0</text><text id="text86" font-size="12" transform="translate(32.0962,266.0039)" style="font-size:12px;font-family:Helvetica">0</text><text id="text88" font-size="12" transform="translate(175.3145,266.0039)" style="font-size:12px;font-family:Helvetica">t</text><text id="text90" font-size="12" transform="matrix(0.583,0,0,0.583,178.6484,270)" style="font-size:12px;font-family:Helvetica">b</text><text id="text92" font-size="12" transform="translate(104.9814,266.0039)" style="font-size:12px;font-family:Helvetica">t</text><text id="text94" font-size="12" transform="matrix(0.583,0,0,0.583,108.3154,270)" style="font-size:12px;font-family:Helvetica">a</text><text id="text96" font-size="12" transform="translate(246.1934,266.0039)" style="font-size:12px;font-family:Helvetica">t</text><text id="text98" font-size="12" transform="matrix(0.583,0,0,0.583,249.5273,270)" style="font-size:12px;font-family:Helvetica">end</text></g><g id="Marker" transform="matrix(1.8212787,0,0,1.8212787,-12.619139,-5.2725481)"><g id="g101"><line id="line103" x1="102.755" x2="109.842" y1="145.275" y2="138.188" stroke-miterlimit="10" style="fill:none;stroke:#000;stroke-width:2;stroke-miterlimit:10"/><line id="line105" x1="102.755" x2="109.842" y1="138.188" y2="145.275" stroke-miterlimit="10" style="fill:none;stroke:#000;stroke-width:2;stroke-miterlimit:10"/></g><g id="g107"><line id="line109" x1="173.623" x2="180.709" y1="109.842" y2="102.755" stroke-miterlimit="10" style="fill:none;stroke:#000;stroke-width:2;stroke-miterlimit:10"/><line id="line111" x1="173.623" x2="180.709" y1="102.755" y2="109.842" stroke-miterlimit="10" style="fill:none;stroke:#000;stroke-width:2;stroke-miterlimit:10"/></g><g id="g113"><line id="line115" x1="244.488" x2="251.574" y1="216.142" y2="209.055" stroke-miterlimit="10" style="fill:none;stroke:#000;stroke-width:2;stroke-miterlimit:10"/><line id="line117" x1="244.488" x2="251.574" y1="209.055" y2="216.142" stroke-miterlimit="10" style="fill:none;stroke:#000;stroke-width:2;stroke-miterlimit:10"/></g><g id="g119"><line id="line121" x1="31.89" x2="38.977" y1="216.142" y2="209.055" stroke-miterlimit="10" style="fill:none;stroke:#000;stroke-width:2;stroke-miterlimit:10"/><line id="line123" x1="31.89" x2="38.977" y1="209.055" y2="216.142" stroke-miterlimit="10" style="fill:none;stroke:#000;stroke-width:2;stroke-miterlimit:10"/></g></g><g id="Labels" transform="matrix(1.8212787,0,0,1.8212787,-12.619139,-5.2725481)"><g id="g126"><g id="g128"><line id="line130" x1="113.386" x2="139.868" y1="85.039" y2="118.142" stroke-miterlimit="10" style="fill:none;stroke:#000;stroke-width:.5;stroke-miterlimit:10"/><g id="g132"><polygon id="polygon134" points="141.732 120.472 137.545 118.202 139.482 117.659 140.437 115.888"/></g></g></g><text id="text136" font-size="14" transform="matrix(0.583,0,0,0.583,78.6733,82.6147)" style="font-size:14px;font-family:Helvetica">Linear interpolation</text><g id="g138"><g id="g140"><line id="line142" x1="63.78" x2="63.78" y1="191.339" y2="202.527" stroke-miterlimit="10" style="fill:none;stroke:#000;stroke-width:.5;stroke-miterlimit:10"/><g id="g144"><polygon id="polygon146" points="63.78 205.512 61.928 201.123 63.78 201.909 65.631 201.123"/></g></g></g><text id="text148" font-size="14" transform="matrix(0.583,0,0,0.583,39.105,188.9141)" style="font-size:14px;font-family:Helvetica">Hold interpolation</text><g id="g150"><g id="g152"><line id="line154" x1="205.512" x2="205.512" y1="191.34" y2="202.527" stroke-miterlimit="10" style="fill:none;stroke:#000;stroke-width:.5;stroke-miterlimit:10"/><g id="g156"><polygon id="polygon158" points="205.512 205.512 203.66 201.123 205.512 201.91 207.363 201.123"/></g></g></g><text id="text160" font-size="14" transform="matrix(0.583,0,0,0.583,178.4531,188.9141)" style="font-size:14px;font-family:Helvetica">“Inverse hold” interpolation</text></g><g id="Legend" transform="matrix(1.8212787,0,0,1.8212787,-12.619139,-5.2725481)"><rect id="rect163" width="76.71" height="29.667" x="173.623" y="24" stroke-miterlimit="10" style="fill:#fff;stroke:#000;stroke-width:.5;stroke-miterlimit:10"/><text id="text165" font-size="14" transform="matrix(0.583,0,0,0.583,187.7441,35.3779)" style="font-size:14px;font-family:Helvetica">Supporting point</text><text id="text167" font-size="14" transform="matrix(0.583,0,0,0.583,187.7441,48.4482)" style="font-size:14px;font-family:Helvetica">Pulse voltage</text><g id="g169"><line id="line171" x1="176.946" x2="184.032" y1="36.199" y2="29.112" stroke-miterlimit="10" style="fill:none;stroke:#000;stroke-width:2;stroke-miterlimit:10"/><line id="line173" x1="176.946" x2="184.032" y1="29.112" y2="36.199" stroke-miterlimit="10" style="fill:none;stroke:#000;stroke-width:2;stroke-miterlimit:10"/></g><line id="line175" x1="176.945" x2="184.032" y1="45.5" y2="45.5" stroke-miterlimit="10" style="fill:none;stroke:#39b54a;stroke-width:2;stroke-miterlimit:10"/></g><g id="g177" transform="matrix(1.8212787,0,0,1.8212787,-12.619139,-5.2725481)"><g id="g179"><line id="line181" x1="109.284" x2="174.18" y1="233.858" y2="233.858" stroke-miterlimit="10" style="fill:none;stroke:#000;stroke-width:.5;stroke-miterlimit:10"/><g id="g183"><polygon id="polygon185" points="106.299 233.858 110.688 235.71 109.902 233.858 110.688 232.007"/></g><g id="g187"><polygon id="polygon189" points="177.165 233.858 172.775 235.71 173.563 233.858 172.775 232.007"/></g></g></g><text id="text191" x="220.819" y="416.768" font-size="14" style="font-size:14.86527538px;font-family:Helvetica-Oblique">length</text><g id="g193" transform="matrix(1.8212787,0,0,1.8212787,-12.619139,-5.2725481)"><g id="g195"><line id="line197" x1="101.992" x2="83.216" y1="217.797" y2="230.313" stroke-miterlimit="10" style="fill:none;stroke:#000;stroke-width:.5;stroke-miterlimit:10"/><g id="g199"><polygon id="polygon201" points="104.476 216.142 99.796 217.035 101.478 218.14 101.851 220.117"/></g></g></g><text id="text203" x="118.806" y="428.185" font-size="14" style="font-size:14.86527538px;font-family:Helvetica-Oblique">start</text></svg>